# xmcd CD database file
# Copyright (C) 1993-1998 Ti Kan
# 
# Track frame offsets:
#     150
#     8757
#     24882
#     40430
#     55280
#     76587
#     88710
#     104342
#     120067
#     142887
#     152697
#     167482
# 
# Disc length: 2379 seconds
# 
# Revision: 1
# Processed by: cddbd v1.4b41PL1 Copyright (c) Steve Scherf et al.
# Submitted via: DiscPlay 4.0.4
# 
DISCID=7b09490c
DTITLE=B. B. King - The Revue Collection
DYEAR=1900
DGENRE=
TTITLE0=A New Way Of Driving
TTITLE1=It's My Own Fault Baby
TTITLE2=How Blue Can You Get
TTITLE3=B. B. Boogie
TTITLE4=You Done Lost Your Good Thing Now
TTITLE5=Paying The Cost To Be The Boss
TTITLE6=Walkin' And Cryin'
TTITLE7=The Letter
TTITLE8=Every Day I Have The Blues
TTITLE9=Swing Low Sweet Chariot
TTITLE10=The Other Night Blues
TTITLE11=Catfish Blues
EXTD=
EXTT0=
EXTT1=
EXTT2=
EXTT3=
EXTT4=
EXTT5=
EXTT6=
EXTT7=
EXTT8=
EXTT9=
EXTT10=
EXTT11=
PLAYORDER=
